# xmcd
#
# Track frame offsets: 
#        150
#        14890
#        27125
#        39787
#        51768
#        64894
#        77260
#        90341
#        104099
#        117780
#        130122
#        142334
#        155974
#        170233
#        182211
#        194179
#        206511
#        219676
#        233470
#        246331
#
# Disc length: 3471 seconds
#
# Revision: 0
# Processed by: cddbd v1.5PL3 Copyright (c) Steve Scherf et al.
# Submitted via: ExactAudioCopy v0.95a4
#
DISCID=290d8d14
DTITLE=T-Bone Walker - No Worry Blues
DYEAR=2002
DGENRE=Blues
TTITLE0=I Got A Break Baby
TTITLE1=No Worry Blues (Walker-Baxter)
TTITLE2=Don't Leave Me Baby (Walker-Baxter)
TTITLE3=Bobby Sox Baby (Williams)
TTITLE4=I'm Gonna Find My Baby (Crainer-Walker)
TTITLE5=I'm In An Aweful Mood (Craiener-Walker)
TTITLE6=It's A Lowdown Dirty Deal (Crainer-Walker)
TTITLE7=Don't Give Me The Runaround (Walker)
TTITLE8=Hard Pain Blues (Goldberg-Crainer-Walker)
TTITLE9=I Know Your Wig Is Gone (George-Walker)
TTITLE10=T-Bone Jumps Again (Walker)
TTITLE11=Call It Stormy Monday But Tuesday Is Just As Bad (Walker)
TTITLE12=She Had To Let Me Down (Walker)
TTITLE13=She's My Old Time Used To Be (Walker)
TTITLE14=Dream Girl Blues (J. Henry)
TTITLE15=Midnight Blues (J. Henry)
TTITLE16=Long Lost Lover Blues (J. Henry)
TTITLE17=Triffin' Woman Blues (J. Henry)
TTITLE18=Long Skirt Baby Blues (J. Henry)
TTITLE19=Goodbye Blues (J. Henry)
EXTD=
EXTT0=
EXTT1=
EXTT2=
EXTT3=
EXTT4=
EXTT5=
EXTT6=
EXTT7=
EXTT8=
EXTT9=
EXTT10=
EXTT11=
EXTT12=
EXTT13=
EXTT14=
EXTT15=
EXTT16=
EXTT17=
EXTT18=
EXTT19=
PLAYORDER=
